<svg width="40" height="32" viewBox="0 0 40 32" fill="none" xmlns="http://www.w3.org/2000/svg">
<path d="M20 0.166664C11.2717 0.166664 4.16667 7.2717 4.16667 16C4.16667 24.7283 11.2717 31.8333 20 31.8333C28.7283 31.8333 35.8333 24.7283 35.8333 16C35.8333 7.2717 28.7283 0.166664 20 0.166664ZM20 2.66666C27.3785 2.66666 33.3333 8.62153 33.3333 16C33.3333 23.3785 27.3785 29.3333 20 29.3333C12.6215 29.3333 6.66667 23.3785 6.66667 16C6.66667 8.62153 12.6215 2.66666 20 2.66666ZM2.50434 8.19184C2.46094 8.19184 2.42188 8.19184 2.37847 8.19184C1.87934 8.22222 1.44097 8.54774 1.27604 9.02083C0.46441 11.191 0 13.5391 0 16C0 18.4609 0.46441 20.809 1.27604 22.9792C1.42361 23.4045 1.79253 23.7127 2.23958 23.7908C2.68229 23.8689 3.13802 23.6997 3.42014 23.3524C3.7066 23.0009 3.78038 22.5234 3.61545 22.1024C2.90365 20.1927 2.5 18.1484 2.5 16C2.5 13.8516 2.90365 11.8073 3.61545 9.89757C3.76302 9.51996 3.71962 9.09462 3.49826 8.76041C3.27691 8.42187 2.90799 8.2092 2.50434 8.19184ZM37.5825 8.19184C37.1658 8.17882 36.7665 8.37847 36.5278 8.72135C36.2847 9.06423 36.2326 9.50694 36.3846 9.89757C37.0964 11.8073 37.5 13.8516 37.5 16C37.5 18.1484 37.0964 20.1927 36.3846 22.1024C36.2196 22.5234 36.2934 23.0009 36.5799 23.3524C36.862 23.6997 37.3177 23.8689 37.7604 23.7908C38.2075 23.7127 38.5764 23.4045 38.724 22.9792C39.5356 20.809 40 18.4609 40 16C40 13.5391 39.5356 11.191 38.724 9.02083C38.5504 8.53472 38.099 8.20486 37.5825 8.19184ZM19.9783 8.48264C19.2925 8.49132 18.7413 9.05989 18.75 9.75V17.25C18.7457 17.7014 18.98 18.1181 19.3707 18.3481C19.7613 18.5738 20.2387 18.5738 20.6293 18.3481C21.02 18.1181 21.2543 17.7014 21.25 17.25V9.75C21.2543 9.41146 21.1241 9.08594 20.8854 8.84722C20.6424 8.6085 20.3168 8.4783 19.9783 8.48264ZM20 20.1667C19.0799 20.1667 18.3333 20.9132 18.3333 21.8333C18.3333 22.7535 19.0799 23.5 20 23.5C20.9201 23.5 21.6667 22.7535 21.6667 21.8333C21.6667 20.9132 20.9201 20.1667 20 20.1667Z" fill="#F63967"/>
</svg>
