<svg xmlns="http://www.w3.org/2000/svg" viewBox="0 0 20 20">
<path d="M10 1.66667C9.34245 1.66667 8.70877 1.74914 8.10548 1.8902C7.84723 1.95096 7.65409 2.16797 7.62587 2.43273L7.4935 3.6415C7.45009 4.03646 7.22006 4.38803 6.87501 4.58768C6.52995 4.78733 6.11112 4.80903 5.74653 4.64844L4.63542 4.16016C4.39237 4.05165 4.10808 4.11025 3.92796 4.30339C3.06424 5.2257 2.40018 6.33898 2.02475 7.58464C1.94879 7.83855 2.03994 8.11198 2.25261 8.26823L3.23785 8.99089C3.5612 9.22744 3.75001 9.6007 3.75001 10C3.75001 10.3993 3.5612 10.7726 3.23785 11.0091L2.25261 11.7296C2.03994 11.8859 1.94879 12.1615 2.02475 12.4154C2.40018 13.6589 3.06424 14.7743 3.92796 15.6966C4.10808 15.8898 4.39237 15.9462 4.63542 15.8398L5.74653 15.3516C6.11112 15.191 6.52995 15.2127 6.87501 15.4123C7.22006 15.612 7.45009 15.9635 7.4935 16.3585L7.62587 17.5673C7.65409 17.832 7.84506 18.049 8.10331 18.1098C8.70877 18.2509 9.34245 18.3333 10 18.3333C10.6576 18.3333 11.2912 18.2509 11.8945 18.1098C12.1528 18.049 12.3459 17.832 12.3741 17.5673L12.5065 16.3585C12.5499 15.9635 12.78 15.612 13.125 15.4123C13.4701 15.2127 13.8889 15.191 14.2535 15.3516L15.3646 15.8398C15.6076 15.9462 15.8919 15.8898 16.0721 15.6966C16.9358 14.7743 17.5998 13.6589 17.9753 12.4154C18.0512 12.1615 17.9601 11.8859 17.7474 11.7296L16.76 11.0091C16.4388 10.7726 16.25 10.3993 16.25 10C16.25 9.6007 16.4388 9.22744 16.76 8.99089L17.7474 8.2704C17.9601 8.11415 18.0512 7.83855 17.9753 7.58464C17.5998 6.34115 16.9358 5.2257 16.0721 4.30339C15.8919 4.11025 15.6076 4.05382 15.3646 4.16016L14.2535 4.64844C13.8889 4.80903 13.4701 4.78733 13.125 4.58768C12.78 4.38803 12.5499 4.03646 12.5065 3.6415L12.3741 2.43056C12.3459 2.16797 12.155 1.95096 11.8967 1.89237C11.2912 1.74914 10.6576 1.66667 10 1.66667ZM10 2.91667C10.4058 2.91667 10.7964 2.99046 11.1871 3.05773L11.2652 3.77605C11.352 4.56815 11.8121 5.27127 12.5 5.67058C13.1901 6.06771 14.0278 6.11329 14.757 5.79428L15.4167 5.50348C15.9245 6.11329 16.326 6.80122 16.6081 7.55426L16.0221 7.98395C15.3798 8.45487 15 9.20356 15 10C15 10.7964 15.3798 11.5451 16.0221 12.0161L16.6081 12.4458C16.326 13.1988 15.9245 13.8867 15.4167 14.4965L14.757 14.2057C14.0278 13.8867 13.1901 13.9323 12.5 14.3294C11.8121 14.7287 11.352 15.4319 11.2652 16.224L11.1871 16.9423C10.7964 17.0096 10.4058 17.0833 10 17.0833C9.59419 17.0833 9.20357 17.0096 8.81294 16.9423L8.73482 16.224C8.64801 15.4319 8.18794 14.7287 7.50001 14.3294C6.8099 13.9323 5.97223 13.8867 5.24306 14.2057L4.58334 14.4965C4.07553 13.8889 3.67405 13.1988 3.39193 12.4458L3.97787 12.0161C4.62023 11.5451 5.00001 10.7964 5.00001 10C5.00001 9.20356 4.62023 8.45487 3.97787 7.98395L3.39193 7.55426C3.67405 6.79905 4.07553 6.11112 4.58334 5.50131L5.24306 5.79211C5.97223 6.11329 6.8099 6.06771 7.50001 5.67058C8.18794 5.27127 8.64801 4.56815 8.73482 3.77605L8.81294 3.05773C9.20357 2.99046 9.59419 2.91667 10 2.91667ZM10 6.66667C8.16624 6.66667 6.66667 8.16624 6.66667 10C6.66667 11.8338 8.16624 13.3333 10 13.3333C11.8338 13.3333 13.3333 11.8338 13.3333 10C13.3333 8.16624 11.8338 6.66667 10 6.66667ZM10 7.91667C11.1589 7.91667 12.0833 8.84115 12.0833 10C12.0833 11.1589 11.1589 12.0833 10 12.0833C8.84115 12.0833 7.91667 11.1589 7.91667 10C7.91667 8.84115 8.84115 7.91667 10 7.91667Z" fill="#2E2E2E"/>
</svg>
