<svg width="32" height="32" viewBox="0 0 32 32" fill="none" xmlns="http://www.w3.org/2000/svg">
<g id="material-symbols:preview-off-rounded">
<path id="Vector" d="M16 22.6667C14.1778 22.6667 12.5498 22.172 11.116 21.1827C9.68222 20.1933 8.64355 18.9102 7.99999 17.3333C8.44444 16.2667 9.06666 15.3333 9.86666 14.5333C10.6667 13.7333 11.6 13.1111 12.6667 12.6667L14.2333 14.2333C13.3667 14.4778 12.5889 14.8613 11.9 15.384C11.2111 15.9067 10.6444 16.5564 10.2 17.3333C10.7778 18.3778 11.5778 19.1947 12.6 19.784C13.6222 20.3733 14.7555 20.6676 16 20.6667C16.6667 20.6667 17.3111 20.5778 17.9333 20.4C18.5555 20.2222 19.1222 19.9667 19.6333 19.6333L21.0667 21.0667C20.3556 21.5778 19.572 21.9724 18.716 22.2507C17.86 22.5289 16.9547 22.6676 16 22.6667ZM22.9667 19.2L21.5333 17.7667C21.5778 17.7 21.6222 17.628 21.6667 17.5507C21.7111 17.4733 21.7556 17.4009 21.8 17.3333C21.4 16.6 20.8778 15.9724 20.2333 15.4507C19.5889 14.9289 18.8667 14.5453 18.0667 14.3L15.7667 12C17.5889 12 19.2556 12.4947 20.7667 13.484C22.2778 14.4733 23.3556 15.7564 24 17.3333C23.8667 17.6667 23.7164 17.9889 23.5493 18.3C23.3822 18.6111 23.188 18.9111 22.9667 19.2ZM6.66666 28C5.93333 28 5.30533 27.7387 4.78266 27.216C4.25999 26.6933 3.99911 26.0658 3.99999 25.3333V7.76667L2.76666 6.53333C2.52222 6.28889 2.39999 5.98311 2.39999 5.616C2.39999 5.24889 2.53333 4.93244 2.79999 4.66667C3.04444 4.42222 3.35555 4.3 3.73333 4.3C4.11111 4.3 4.42222 4.42222 4.66666 4.66667L27.3333 27.3333C27.6 27.6 27.728 27.9111 27.7173 28.2667C27.7067 28.6222 27.5676 28.9333 27.3 29.2C27.0333 29.4444 26.7222 29.5724 26.3667 29.584C26.0111 29.5956 25.7 29.4676 25.4333 29.2L24.2333 28H6.66666ZM6.66666 25.3333H21.5667L6.66666 10.4333V25.3333ZM28 24.2333L25.3333 21.5667V10.6667H14.4333L7.76666 4H25.3333C26.0667 4 26.6947 4.26133 27.2173 4.784C27.74 5.30667 28.0009 5.93422 28 6.66667V24.2333Z" fill="#09B37D"/>
</g>
</svg>
