<svg width="32" height="32" viewBox="0 0 32 32" fill="none" xmlns="http://www.w3.org/2000/svg">
<g id="material-symbols:stack-off-rounded">
<path id="Vector" d="M29.3333 25.5333L14.4667 10.6666H26.6667C27.4 10.6666 28.028 10.928 28.5507 11.4506C29.0733 11.9733 29.3342 12.6008 29.3333 13.3333V25.5333ZM9.13335 5.33329L6.46668 2.66663H18.6667C19.4 2.66663 20.028 2.92796 20.5507 3.45063C21.0733 3.97329 21.3342 4.60085 21.3333 5.33329V6.66663C21.3333 7.0444 21.2053 7.36129 20.9493 7.61729C20.6933 7.87329 20.3769 8.00085 20 7.99996C19.6222 7.99996 19.3053 7.87196 19.0493 7.61596C18.7933 7.35996 18.6658 7.04352 18.6667 6.66663V5.33329H9.13335ZM13.3333 29.3333C12.5778 29.3333 11.9445 29.0777 11.4333 28.5666C10.9222 28.0555 10.6667 27.4222 10.6667 26.6666V14.4666L5.33335 9.13329V18.6666H6.66668C7.04446 18.6666 7.36135 18.7946 7.61735 19.0506C7.87335 19.3066 8.0009 19.6231 8.00001 20C8.00001 20.3777 7.87201 20.6946 7.61601 20.9506C7.36001 21.2066 7.04357 21.3342 6.66668 21.3333H5.33335C4.57779 21.3333 3.94446 21.0777 3.43335 20.5666C2.92224 20.0555 2.66668 19.4222 2.66668 18.6666V6.46663L1.70001 5.49996C1.43335 5.23329 1.30535 4.91685 1.31601 4.55063C1.32668 4.1844 1.46579 3.86751 1.73335 3.59996C2.00001 3.33329 2.3169 3.19996 2.68401 3.19996C3.05113 3.19996 3.36757 3.33329 3.63335 3.59996L28.4 28.4C28.6667 28.6666 28.8 28.9777 28.8 29.3333C28.8 29.6888 28.6667 30 28.4 30.2666C28.1333 30.5333 27.8165 30.6666 27.4493 30.6666C27.0822 30.6666 26.7658 30.5333 26.5 30.2666L25.5333 29.3333H13.3333Z" fill="#09B37D"/>
</g>
</svg>
