<svg width="32" height="32" viewBox="0 0 32 32" fill="none" xmlns="http://www.w3.org/2000/svg">
<g id="material-symbols:group-off-rounded">
<path id="Vector" d="M26.3667 30.1L20.7667 24.5334H22.6667C22.6667 25.1112 22.4556 25.6112 22.0333 26.0334C21.6111 26.4556 21.1111 26.6667 20.5333 26.6667H4.00001C3.26668 26.6667 2.63868 26.4054 2.11601 25.8827C1.59335 25.3601 1.33246 24.7325 1.33335 24V22.9334C1.33335 22.1778 1.52801 21.4832 1.91735 20.8494C2.30668 20.2156 2.82312 19.7325 3.46668 19.4001C4.84446 18.7112 6.24446 18.1943 7.66668 17.8494C9.0889 17.5045 10.5333 17.3325 12 17.3334C12.2667 17.3334 12.5391 17.3392 12.8173 17.3507C13.0956 17.3623 13.3676 17.3787 13.6333 17.4001L12.2333 16H12C10.5333 16 9.27779 15.4778 8.23335 14.4334C7.1889 13.3889 6.66668 12.1334 6.66668 10.6667V10.4334L1.83335 5.60005C1.56668 5.33338 1.43335 5.01649 1.43335 4.64938C1.43335 4.28227 1.56668 3.96583 1.83335 3.70005C2.10001 3.43338 2.4169 3.30005 2.78401 3.30005C3.15112 3.30005 3.46757 3.43338 3.73335 3.70005L28.2667 28.2334C28.5333 28.5 28.6667 28.8112 28.6667 29.1667C28.6667 29.5223 28.5333 29.8334 28.2667 30.1C28 30.3667 27.6836 30.5 27.3173 30.5C26.9511 30.5 26.6342 30.3667 26.3667 30.1ZM22.2 17.5334C23.3333 17.6667 24.4 17.8947 25.4 18.2174C26.4 18.54 27.3333 18.9343 28.2 19.4001C29 19.8445 29.6111 20.3387 30.0333 20.8827C30.4556 21.4267 30.6667 22.0214 30.6667 22.6667V26.6667H30.5L25.1667 21.3334C24.9667 20.6 24.6165 19.9054 24.116 19.2494C23.6156 18.5934 22.9769 18.0214 22.2 17.5334ZM18.7333 14.9001C19.1556 14.2778 19.4725 13.6112 19.684 12.9C19.8956 12.1889 20.0009 11.4445 20 10.6667C20 9.73338 19.8391 8.83338 19.5173 7.96672C19.1956 7.10005 18.7342 6.31116 18.1333 5.60005C18.4445 5.48894 18.7556 5.41649 19.0667 5.38272C19.3778 5.34894 19.6889 5.33249 20 5.33338C21.4667 5.33338 22.7222 5.8556 23.7667 6.90005C24.8111 7.94449 25.3333 9.20005 25.3333 10.6667C25.3333 12.1334 24.7831 13.3889 23.6827 14.4334C22.5822 15.4778 21.2991 16 19.8333 16L18.7333 14.9001ZM16.8 12.9667L9.70001 5.86672C10.0556 5.68894 10.4222 5.5556 10.8 5.46672C11.1778 5.37783 11.5778 5.33338 12 5.33338C13.4667 5.33338 14.7222 5.8556 15.7667 6.90005C16.8111 7.94449 17.3333 9.20005 17.3333 10.6667C17.3333 11.0889 17.2889 11.4889 17.2 11.8667C17.1111 12.2445 16.9778 12.6112 16.8 12.9667Z" fill="#09B37D"/>
</g>
</svg>
