<svg width="32" height="32" viewBox="0 0 32 32" fill="none" xmlns="http://www.w3.org/2000/svg">
<g id="material-symbols:extension-off-rounded">
<path id="Vector" d="M6.66667 28C5.93333 28 5.30533 27.7387 4.78267 27.216C4.26 26.6933 3.99911 26.0658 4 25.3333V20.2667C5.06667 20.2667 6 19.928 6.8 19.2507C7.6 18.5733 8 17.712 8 16.6667C8 15.6222 7.6 14.7613 6.8 14.084C6 13.4067 5.06667 13.0676 4 13.0667V8C4 7.62222 4.06667 7.272 4.2 6.94933C4.33333 6.62667 4.52222 6.34355 4.76667 6.1L25.9 27.2333C25.6556 27.4778 25.372 27.6667 25.0493 27.8C24.7267 27.9333 24.3769 28 24 28H18.9333C18.9333 26.9333 18.5947 26 17.9173 25.2C17.24 24.4 16.3787 24 15.3333 24C14.2889 24 13.4276 24.4 12.7493 25.2C12.0711 26 11.7324 26.9333 11.7333 28H6.66667ZM26.6667 22.8667L9.13333 5.33333H12C12 4.4 12.3222 3.61111 12.9667 2.96667C13.6111 2.32222 14.4 2 15.3333 2C16.2667 2 17.0556 2.32222 17.7 2.96667C18.3444 3.61111 18.6667 4.4 18.6667 5.33333H24C24.7333 5.33333 25.3613 5.59467 25.884 6.11733C26.4067 6.64 26.6676 7.26756 26.6667 8V13.3333C27.6 13.3333 28.3889 13.6556 29.0333 14.3C29.6778 14.9444 30 15.7333 30 16.6667C30 17.6 29.6778 18.3889 29.0333 19.0333C28.3889 19.6778 27.6 20 26.6667 20V22.8667ZM25.4333 29.2L2.76667 6.56667C2.5 6.3 2.372 5.98356 2.38266 5.61733C2.39333 5.25111 2.53244 4.93422 2.8 4.66667C3.06666 4.4 3.38355 4.26667 3.75067 4.26667C4.11778 4.26667 4.43422 4.4 4.7 4.66667L27.3333 27.3333C27.6 27.6 27.7333 27.9111 27.7333 28.2667C27.7333 28.6222 27.6 28.9333 27.3333 29.2C27.0667 29.4667 26.7498 29.6 26.3827 29.6C26.0156 29.6 25.6991 29.4667 25.4333 29.2Z" fill="#09B37D"/>
</g>
</svg>
