<svg width="32" height="32" viewBox="0 0 32 32" fill="none" xmlns="http://www.w3.org/2000/svg">
<g id="material-symbols:select-window-off-rounded">
<path id="Vector" d="M26.3667 30.1L13.5667 17.3333H5.33332V26.6666H21.3333V21.3L24 23.9666V26.6666C24 27.4 23.7387 28.028 23.216 28.5506C22.6933 29.0733 22.0658 29.3342 21.3333 29.3333H5.33332C4.59999 29.3333 3.97199 29.072 3.44932 28.5493C2.92665 28.0266 2.66576 27.3991 2.66665 26.6666V14.6666C2.66665 13.9333 2.92799 13.3053 3.45065 12.7826C3.97332 12.26 4.60087 11.9991 5.33332 12H7.99999V11.7666L1.83332 5.59996C1.56665 5.33329 1.43332 5.0164 1.43332 4.64929C1.43332 4.28218 1.56665 3.96574 1.83332 3.69996C2.09999 3.43329 2.41687 3.29996 2.78399 3.29996C3.1511 3.29996 3.46754 3.43329 3.73332 3.69996L28.2667 28.2333C28.5333 28.5 28.6667 28.8111 28.6667 29.1666C28.6667 29.5222 28.5333 29.8333 28.2667 30.1C28 30.3666 27.6835 30.5 27.3173 30.5C26.9511 30.5 26.6342 30.3666 26.3667 30.1ZM24 20.1666L21.1667 17.3333L15.8333 12H21.3333C22.0667 12 22.6947 12.2613 23.2173 12.784C23.74 13.3066 24.0009 13.9342 24 14.6666V17.3333H26.6667V7.99996H11.8333L8.19999 4.36663C8.37776 3.85552 8.69465 3.4444 9.15065 3.13329C9.60665 2.82218 10.112 2.66663 10.6667 2.66663H26.6667C27.4 2.66663 28.028 2.92796 28.5507 3.45063C29.0733 3.97329 29.3342 4.60085 29.3333 5.33329V17.3333C29.3333 18.0666 29.072 18.6946 28.5493 19.2173C28.0267 19.74 27.3991 20.0008 26.6667 20H24V20.1666Z" fill="#09B37D"/>
</g>
</svg>
