<svg width="32" height="32" viewBox="0 0 32 32" fill="none" xmlns="http://www.w3.org/2000/svg">
<g id="material-symbols:cookie-off-rounded">
<path id="Vector" d="M27.1667 23.3333L8.66665 4.83329C9.82221 4.05551 11.1111 3.50529 12.5333 3.18262C13.9555 2.85995 15.4778 2.69907 17.1 2.69995C17.5222 2.69995 17.8889 2.83329 18.2 3.09995C18.5111 3.36662 18.6667 3.71107 18.6667 4.13329C18.6667 5.48884 19.2 6.71684 20.2667 7.81729C21.3333 8.91773 22.5667 9.40084 23.9667 9.26662C24.3444 9.22218 24.6724 9.33907 24.9506 9.61729C25.2289 9.89551 25.3564 10.2231 25.3333 10.6C25.2889 11.5777 25.5613 12.4444 26.1507 13.2C26.74 13.9555 27.4564 14.3888 28.3 14.5C28.5889 14.5444 28.8333 14.6724 29.0333 14.884C29.2333 15.0955 29.3333 15.3453 29.3333 15.6333C29.3333 16.9888 29.1555 18.328 28.8 19.6506C28.4444 20.9733 27.9 22.2008 27.1667 23.3333ZM11.3333 20C11.8889 20 12.3613 19.8053 12.7507 19.416C13.14 19.0266 13.3342 18.5546 13.3333 18C13.3333 17.4444 13.1387 16.972 12.7493 16.5826C12.36 16.1933 11.888 15.9991 11.3333 16C10.7778 16 10.3053 16.1946 9.91598 16.584C9.52665 16.9733 9.33243 17.4453 9.33332 18C9.33332 18.5555 9.52799 19.028 9.91732 19.4173C10.3067 19.8066 10.7787 20.0008 11.3333 20ZM16 29.3333C14.1555 29.3333 12.4222 28.9831 10.8 28.2826C9.17776 27.5822 7.76665 26.6324 6.56665 25.4333C5.36665 24.2333 4.41687 22.8222 3.71732 21.2C3.01776 19.5777 2.66754 17.8444 2.66665 16C2.66665 14.6222 2.85554 13.3164 3.23332 12.0826C3.6111 10.8488 4.15554 9.69951 4.86665 8.63462L1.83332 5.59995C1.56665 5.33329 1.43332 5.01684 1.43332 4.65062C1.43332 4.2844 1.56665 3.96751 1.83332 3.69995C2.09999 3.43329 2.41687 3.29995 2.78399 3.29995C3.1511 3.29995 3.46754 3.43329 3.73332 3.69995L28.2667 28.2333C28.5333 28.5 28.6666 28.8111 28.6666 29.1666C28.6666 29.5222 28.5333 29.8333 28.2667 30.1C28 30.3666 27.6835 30.5 27.3173 30.5C26.9511 30.5 26.6342 30.3666 26.3666 30.1L23.3666 27.1333C22.3 27.8444 21.1502 28.3888 19.9173 28.7666C18.6844 29.1444 17.3787 29.3333 16 29.3333Z" fill="#09B37D"/>
</g>
</svg>
