<svg width="32" height="32" viewBox="0 0 32 32" fill="none" xmlns="http://www.w3.org/2000/svg">
<g id="material-symbols:language">
<path id="Vector" d="M16 29.3333C14.1778 29.3333 12.4555 28.9831 10.8333 28.2826C9.2111 27.5822 7.79421 26.6266 6.58266 25.416C5.37199 24.2053 4.41644 22.7888 3.71599 21.1666C3.01555 19.5444 2.66577 17.8222 2.66666 16C2.66666 14.1555 3.01688 12.4275 3.71732 10.816C4.41777 9.2044 5.37333 7.79374 6.58399 6.58396C7.79466 5.3724 9.21066 4.41685 10.832 3.71729C12.4533 3.01774 14.176 2.66751 16 2.66663C17.8444 2.66663 19.5724 3.01685 21.184 3.71729C22.7955 4.41774 24.2062 5.37329 25.416 6.58396C26.6275 7.79463 27.5831 9.20574 28.2827 10.8173C28.9822 12.4288 29.3324 14.1564 29.3333 16C29.3333 17.8222 28.9831 19.5444 28.2827 21.1666C27.5822 22.7888 26.6267 24.2057 25.416 25.4173C24.2053 26.628 22.7942 27.5835 21.1827 28.284C19.5711 28.9844 17.8435 29.3342 16 29.3333ZM16 26.6C16.5778 25.8 17.0778 24.9666 17.5 24.1C17.9222 23.2333 18.2667 22.3111 18.5333 21.3333H13.4667C13.7333 22.3111 14.0778 23.2333 14.5 24.1C14.9222 24.9666 15.4222 25.8 16 26.6ZM12.5333 26.0666C12.1333 25.3333 11.7831 24.572 11.4827 23.7826C11.1822 22.9933 10.9324 22.1768 10.7333 21.3333H6.79999C7.44444 22.4444 8.25021 23.4111 9.21733 24.2333C10.1844 25.0555 11.2898 25.6666 12.5333 26.0666ZM19.4667 26.0666C20.7111 25.6666 21.8169 25.0555 22.784 24.2333C23.7511 23.4111 24.5564 22.4444 25.2 21.3333H21.2667C21.0667 22.1777 20.8169 22.9946 20.5173 23.784C20.2178 24.5733 19.8675 25.3342 19.4667 26.0666ZM5.66666 18.6666H10.2C10.1333 18.2222 10.0831 17.7831 10.0493 17.3493C10.0155 16.9155 9.9991 16.4657 9.99999 16C9.99999 15.5333 10.0169 15.0835 10.0507 14.6506C10.0844 14.2177 10.1342 13.7786 10.2 13.3333H5.66666C5.55555 13.7777 5.47199 14.2168 5.41599 14.6506C5.35999 15.0844 5.33244 15.5342 5.33332 16C5.33332 16.4666 5.36133 16.9164 5.41733 17.3493C5.47333 17.7822 5.55644 18.2213 5.66666 18.6666ZM12.8667 18.6666H19.1333C19.2 18.2222 19.2502 17.7831 19.284 17.3493C19.3178 16.9155 19.3342 16.4657 19.3333 16C19.3333 15.5333 19.3164 15.0835 19.2827 14.6506C19.2489 14.2177 19.1991 13.7786 19.1333 13.3333H12.8667C12.8 13.7777 12.7498 14.2168 12.716 14.6506C12.6822 15.0844 12.6658 15.5342 12.6667 16C12.6667 16.4666 12.6835 16.9164 12.7173 17.3493C12.7511 17.7822 12.8009 18.2213 12.8667 18.6666ZM21.8 18.6666H26.3333C26.4444 18.2222 26.528 17.7831 26.584 17.3493C26.64 16.9155 26.6675 16.4657 26.6667 16C26.6667 15.5333 26.6387 15.0835 26.5827 14.6506C26.5267 14.2177 26.4435 13.7786 26.3333 13.3333H21.8C21.8667 13.7777 21.9169 14.2168 21.9507 14.6506C21.9844 15.0844 22.0009 15.5342 22 16C22 16.4666 21.9831 16.9164 21.9493 17.3493C21.9155 17.7822 21.8658 18.2213 21.8 18.6666ZM21.2667 10.6666H25.2C24.5555 9.55552 23.7502 8.58885 22.784 7.76663C21.8178 6.9444 20.712 6.33329 19.4667 5.93329C19.8667 6.66663 20.2169 7.42796 20.5173 8.21729C20.8178 9.00663 21.0675 9.82307 21.2667 10.6666ZM13.4667 10.6666H18.5333C18.2667 9.68885 17.9222 8.76663 17.5 7.89996C17.0778 7.03329 16.5778 6.19996 16 5.39996C15.4222 6.19996 14.9222 7.03329 14.5 7.89996C14.0778 8.76663 13.7333 9.68885 13.4667 10.6666ZM6.79999 10.6666H10.7333C10.9333 9.82218 11.1835 9.00529 11.484 8.21596C11.7844 7.42663 12.1342 6.66574 12.5333 5.93329C11.2889 6.33329 10.1831 6.9444 9.21599 7.76663C8.24888 8.58885 7.44355 9.55552 6.79999 10.6666Z" fill="#09B37D"/>
</g>
</svg>
