<svg width="32" height="32" viewBox="0 0 32 32" fill="none" xmlns="http://www.w3.org/2000/svg">
<g id="material-symbols:account-circle">
<path id="Vector" d="M7.79999 22.8C8.93332 21.9333 10.2 21.2497 11.6 20.7493C13 20.2488 14.4667 19.9991 16 20C17.5333 20 19 20.2502 20.4 20.7506C21.8 21.2511 23.0667 21.9342 24.2 22.8C24.9778 21.8888 25.5835 20.8555 26.0173 19.7C26.4511 18.5444 26.6675 17.3111 26.6667 16C26.6667 13.0444 25.628 10.5275 23.5507 8.44929C21.4733 6.37107 18.9564 5.3324 16 5.33329C13.0444 5.33329 10.5275 6.37196 8.44932 8.44929C6.3711 10.5266 5.33243 13.0435 5.33332 16C5.33332 17.3111 5.55021 18.5444 5.98399 19.7C6.41777 20.8555 7.0231 21.8888 7.79999 22.8ZM16 17.3333C14.6889 17.3333 13.5831 16.8835 12.6827 15.984C11.7822 15.0844 11.3324 13.9786 11.3333 12.6666C11.3333 11.3555 11.7831 10.2497 12.6827 9.34929C13.5822 8.44885 14.688 7.99907 16 7.99996C17.3111 7.99996 18.4169 8.44974 19.3173 9.34929C20.2178 10.2488 20.6675 11.3546 20.6667 12.6666C20.6667 13.9777 20.2169 15.0835 19.3173 15.984C18.4178 16.8844 17.312 17.3342 16 17.3333ZM16 29.3333C14.1555 29.3333 12.4222 28.9831 10.8 28.2826C9.17777 27.5822 7.76666 26.6324 6.56666 25.4333C5.36666 24.2333 4.41688 22.8222 3.71732 21.2C3.01777 19.5777 2.66755 17.8444 2.66666 16C2.66666 14.1555 3.01688 12.4222 3.71732 10.8C4.41777 9.17774 5.36755 7.76663 6.56666 6.56663C7.76666 5.36663 9.17777 4.41685 10.8 3.71729C12.4222 3.01774 14.1555 2.66751 16 2.66663C17.8444 2.66663 19.5778 3.01685 21.2 3.71729C22.8222 4.41774 24.2333 5.36752 25.4333 6.56663C26.6333 7.76663 27.5835 9.17774 28.284 10.8C28.9844 12.4222 29.3342 14.1555 29.3333 16C29.3333 17.8444 28.9831 19.5777 28.2827 21.2C27.5822 22.8222 26.6324 24.2333 25.4333 25.4333C24.2333 26.6333 22.8222 27.5835 21.2 28.284C19.5778 28.9844 17.8444 29.3342 16 29.3333Z" fill="#09B37D"/>
</g>
</svg>
