<svg width="32" height="32" viewBox="0 0 32 32" fill="none" xmlns="http://www.w3.org/2000/svg">
<g id="material-symbols:filter-alt">
<path id="Vector" d="M14.6667 26.6667C14.2889 26.6667 13.972 26.5387 13.716 26.2827C13.46 26.0267 13.3325 25.7103 13.3333 25.3334V17.3334L5.60001 7.46671C5.26668 7.02226 5.21646 6.5556 5.44935 6.06671C5.68223 5.57782 6.08801 5.33337 6.66668 5.33337H25.3333C25.9111 5.33337 26.3169 5.57782 26.5507 6.06671C26.7845 6.5556 26.7342 7.02226 26.4 7.46671L18.6667 17.3334V25.3334C18.6667 25.7112 18.5387 26.028 18.2827 26.284C18.0267 26.54 17.7102 26.6676 17.3333 26.6667H14.6667Z" fill="#09B37D"/>
</g>
</svg>
