<svg width="32" height="32" viewBox="0 0 32 32" fill="none" xmlns="http://www.w3.org/2000/svg">
<g id="material-symbols:privacy-tip-rounded">
<path id="Vector" d="M16.0007 22.6667C16.3784 22.6667 16.6953 22.5387 16.9513 22.2827C17.2073 22.0267 17.3349 21.7103 17.334 21.3334V16C17.334 15.6223 17.206 15.3054 16.95 15.0494C16.694 14.7934 16.3775 14.6658 16.0007 14.6667C15.6229 14.6667 15.306 14.7947 15.05 15.0507C14.794 15.3067 14.6664 15.6231 14.6673 16V21.3334C14.6673 21.7111 14.7953 22.028 15.0513 22.284C15.3073 22.54 15.6238 22.6676 16.0007 22.6667ZM16.0007 12C16.3784 12 16.6953 11.872 16.9513 11.616C17.2073 11.36 17.3349 11.0436 17.334 10.6667C17.334 10.2889 17.206 9.97203 16.95 9.71603C16.694 9.46003 16.3775 9.33248 16.0007 9.33337C15.6229 9.33337 15.306 9.46137 15.05 9.71737C14.794 9.97337 14.6664 10.2898 14.6673 10.6667C14.6673 11.0445 14.7953 11.3614 15.0513 11.6174C15.3073 11.8734 15.6238 12.0009 16.0007 12ZM16.0007 29.2C15.8451 29.2 15.7007 29.1889 15.5673 29.1667C15.434 29.1445 15.3007 29.1111 15.1673 29.0667C12.1673 28.0667 9.77843 26.2165 8.00065 23.516C6.22287 20.8156 5.33398 17.9103 5.33398 14.8V8.50003C5.33398 7.94448 5.49532 7.44448 5.81798 7.00003C6.14065 6.55559 6.5571 6.23337 7.06732 6.03337L15.0673 3.03337C15.3784 2.92225 15.6895 2.8667 16.0007 2.8667C16.3118 2.8667 16.6229 2.92225 16.934 3.03337L24.934 6.03337C25.4451 6.23337 25.862 6.55559 26.1847 7.00003C26.5073 7.44448 26.6682 7.94448 26.6673 8.50003V14.8C26.6673 17.9111 25.7784 20.8169 24.0007 23.5174C22.2229 26.2178 19.834 28.0676 16.834 29.0667C16.7007 29.1111 16.5673 29.1445 16.434 29.1667C16.3007 29.1889 16.1562 29.2 16.0007 29.2Z" fill="#09B37D"/>
</g>
</svg>
