<svg width="292" height="185" viewBox="0 0 292 185" fill="none" xmlns="http://www.w3.org/2000/svg">
<rect x="12" width="268" height="37.2222" rx="1.86111" fill="#232329"/>
<path d="M12 3.72222H198.111C206.334 3.72222 213 10.3882 213 18.6111C213 26.834 206.334 33.5 198.111 33.5H12V3.72222Z" fill="#111111"/>
<g clip-path="url(#clip0_283_2637)">
<rect x="222.695" y="9.69501" width="18.61" height="18.61" rx="2.90781" fill="#F21856"/>
<path fill-rule="evenodd" clip-rule="evenodd" d="M231.014 21.6534H231.974L231.734 20.9334L231.014 21.6534ZM232.535 20.1323V21.6534H234.742C235.746 21.6534 236.552 21.3559 237.16 20.761C237.774 20.1661 238.081 19.3504 238.081 18.3141C238.081 17.4249 237.771 16.6828 237.151 16.0878C237.052 15.9926 236.95 15.9049 236.843 15.8248L235.907 16.7603C235.974 16.812 236.037 16.8693 236.095 16.9323C236.421 17.2777 236.584 17.7383 236.584 18.3141C236.584 18.9922 236.421 19.5167 236.095 19.8878C235.775 20.2588 235.318 20.4443 234.723 20.4443H234.051V18.6162L232.535 20.1323ZM234.051 17.7937L232.535 19.3099V17.665L235.008 15.1925C235.496 15.2192 235.937 15.3266 236.33 15.5147L235.357 16.4874C235.164 16.4322 234.949 16.4045 234.713 16.4045H234.051V17.7937ZM234.192 15.1858H232.535V16.8425L234.192 15.1858ZM230.911 18.4669L229.815 15.1858H227.954L225.795 21.6534H227.34L227.733 20.3292H229.048L230.911 18.4669ZM229.871 20.3292H229.998L230.345 21.4996L231.528 20.3168L231.116 19.0835L229.871 20.3292ZM229.575 18.909L229.643 19.1393H228.088L228.155 18.909C228.577 17.4952 228.814 16.6124 228.865 16.2606L228.904 16.4525C228.929 16.5804 229 16.8651 229.115 17.3065C229.236 17.7479 229.39 18.2821 229.575 18.909Z" fill="white"/>
<path d="M237.383 12.817L238.206 13.6394L226.653 25.1927L225.83 24.3702L237.383 12.817Z" fill="white"/>
<path d="M234.963 11.8032C234.976 11.8032 234.988 11.8055 235 11.8101C235.011 11.8148 235.021 11.8215 235.029 11.8301L239.199 16.0006C239.216 16.0179 239.226 16.0415 239.226 16.066V21.9642C239.226 21.9766 239.223 21.9889 239.219 22.0005C239.214 22.0118 239.207 22.0221 239.199 22.0307L235.029 26.1987C235.021 26.2074 235.01 26.2142 234.999 26.2187C234.987 26.2235 234.975 26.226 234.963 26.2259H229.066C229.053 26.226 229.041 26.2235 229.029 26.2187C229.018 26.2142 229.008 26.2074 228.999 26.1987L224.831 22.0296C224.822 22.0209 224.815 22.0106 224.81 21.9992C224.805 21.9877 224.803 21.9755 224.803 21.9631V16.0671C224.803 16.0547 224.805 16.0425 224.81 16.031C224.815 16.0196 224.822 16.0093 224.831 16.0006L229 11.8304C229.008 11.8217 229.019 11.8148 229.03 11.8101C229.041 11.8055 229.054 11.8032 229.066 11.8032H234.963ZM234.963 10.64H229.066C228.732 10.6401 228.413 10.7724 228.178 11.0079L224.008 15.1784C223.892 15.2949 223.799 15.4332 223.736 15.5855C223.673 15.7378 223.64 15.9011 223.64 16.066V21.9631C223.64 22.1283 223.672 22.292 223.736 22.4447C223.799 22.5973 223.892 22.7361 224.008 22.8529L228.178 27.0219C228.413 27.2574 228.732 27.3898 229.066 27.3898H234.963C235.128 27.3899 235.292 27.3574 235.445 27.2941C235.597 27.2309 235.736 27.1381 235.853 27.0212L240.021 22.8529C240.138 22.7362 240.231 22.5976 240.294 22.445C240.357 22.2924 240.389 22.1289 240.389 21.9638V16.066C240.389 15.9012 240.356 15.7379 240.293 15.5856C240.23 15.4333 240.138 15.295 240.021 15.1784L235.853 11.0079C235.736 10.8911 235.597 10.7985 235.445 10.7354C235.292 10.6723 235.128 10.6399 234.963 10.64Z" fill="white"/>
</g>
<circle cx="261.389" cy="18.6111" r="14.8889" fill="#68687B"/>
<path d="M258.908 25.5903H255.961C255.534 25.5903 255.169 25.4383 254.865 25.1343C254.561 24.8303 254.409 24.4653 254.41 24.0394V21.0926C255.03 21.0926 255.573 20.8956 256.038 20.5017C256.504 20.1078 256.736 19.6068 256.736 18.9988C256.736 18.3914 256.504 17.8907 256.038 17.4968C255.573 17.1028 255.03 16.9056 254.41 16.9051V13.9583C254.41 13.5318 254.562 13.1666 254.866 12.8626C255.17 12.5586 255.535 12.4069 255.961 12.4074H259.063C259.063 11.8646 259.25 11.4058 259.625 11.031C260 10.6562 260.459 10.4688 261.001 10.4688C261.544 10.4688 262.003 10.6562 262.378 11.031C262.753 11.4058 262.94 11.8646 262.94 12.4074H266.042C266.468 12.4074 266.834 12.5594 267.138 12.8634C267.442 13.1674 267.593 13.5323 267.593 13.9583V17.0602C268.136 17.0602 268.594 17.2476 268.969 17.6224C269.344 17.9972 269.531 18.456 269.531 18.9988C269.531 19.5417 269.344 20.0005 268.969 20.3753C268.594 20.7501 268.136 20.9375 267.593 20.9375V24.0394C267.593 24.4659 267.441 24.8311 267.137 25.1351C266.833 25.4391 266.468 25.5908 266.042 25.5903H263.095C263.095 24.9441 262.892 24.3948 262.485 23.9424C262.078 23.4901 261.583 23.2639 261.001 23.2639C260.42 23.2639 259.925 23.4901 259.518 23.9424C259.111 24.3948 258.907 24.9441 258.908 25.5903Z" fill="#111111"/>
<g filter="url(#filter0_d_334_7281)">
<rect x="15.7222" y="33.5" width="260.556" height="135.861" rx="1.86111" fill="#232329"/>
</g>
<path d="M32.116 60.3889V48.587H39.4277V49.912H33.5881V53.6987H39.1251V55.0073H33.5881V59.0639H39.4277V60.3889H32.116ZM41.2107 60.3889L44.2286 55.9806L41.178 51.5722H42.8546L44.9484 54.8519H45.0792L47.1484 51.5722H48.7433L45.7499 55.9233L48.7842 60.3889H47.1157L45.0302 57.0602H44.8993L42.8055 60.3889H41.2107ZM53.8304 60.4543C52.0148 60.4543 51.2542 59.7837 51.2542 58.0988V52.75H49.8638V51.5722H51.2542V49.2904H52.7263V51.5722H54.6565V52.75H52.7263V57.739C52.7263 58.7777 53.0862 59.1948 54.0022 59.1948C54.2557 59.1948 54.3948 59.1866 54.6565 59.1621V60.3725C54.3784 60.4216 54.1085 60.4543 53.8304 60.4543ZM60.2507 60.5443C57.7317 60.5443 56.2104 58.7777 56.2104 56.0133V56.0051C56.2104 53.2816 57.7644 51.4168 60.1608 51.4168C62.5571 51.4168 64.0129 53.1998 64.0129 55.8333V56.3895H57.6663C57.7072 58.2133 58.7131 59.2766 60.2834 59.2766C61.4775 59.2766 62.2136 58.7122 62.4508 58.1806L62.4835 58.107H63.9066L63.8903 58.1725C63.5876 59.3665 62.3281 60.5443 60.2507 60.5443ZM60.1526 52.6845C58.844 52.6845 57.8462 53.576 57.6908 55.2527H62.5653C62.4181 53.5106 61.453 52.6845 60.1526 52.6845ZM66.2212 60.3889V51.5722H67.6443V52.8972H67.7751C68.2168 51.9648 69.0428 51.4168 70.3433 51.4168C72.3225 51.4168 73.4266 52.5864 73.4266 54.6801V60.3889H72.0035V55.0237C72.0035 53.437 71.3492 52.6764 69.9425 52.6764C68.5358 52.6764 67.6443 53.6251 67.6443 55.1709V60.3889H66.2212ZM79.0291 60.5443C77.0662 60.5443 75.7167 59.5956 75.5531 58.1397H77.0089C77.2461 58.8758 77.9495 59.3584 79.0781 59.3584C80.264 59.3584 81.1064 58.794 81.1064 57.9925V57.9762C81.1064 57.3791 80.6566 56.962 79.5688 56.7003L78.203 56.3731C76.5509 55.9806 75.8066 55.2608 75.8066 53.9931V53.985C75.8066 52.521 77.2134 51.4168 79.0863 51.4168C80.9347 51.4168 82.2188 52.341 82.415 53.7805H81.0165C80.8284 53.0853 80.1414 52.6028 79.0781 52.6028C78.0312 52.6028 77.2625 53.1425 77.2625 53.9195V53.9359C77.2625 54.5329 77.7041 54.9091 78.7428 55.1627L80.1005 55.4898C81.7607 55.8906 82.5623 56.6103 82.5623 57.8698V57.8862C82.5623 59.4565 81.0328 60.5443 79.0291 60.5443ZM85.5229 49.8711C84.9832 49.8711 84.5415 49.4294 84.5415 48.8896C84.5415 48.3498 84.9832 47.9082 85.5229 47.9082C86.0627 47.9082 86.5044 48.3498 86.5044 48.8896C86.5044 49.4294 86.0627 49.8711 85.5229 49.8711ZM84.8032 60.3889V51.5722H86.2263V60.3889H84.8032ZM92.5321 60.5443C90.0212 60.5443 88.4673 58.8104 88.4673 55.9887V55.9724C88.4673 53.1425 90.0212 51.4168 92.5321 51.4168C95.043 51.4168 96.5969 53.1425 96.5969 55.9724V55.9887C96.5969 58.8104 95.043 60.5443 92.5321 60.5443ZM92.5321 59.2848C94.2006 59.2848 95.1411 58.0661 95.1411 55.9887V55.9724C95.1411 53.8868 94.2006 52.6764 92.5321 52.6764C90.8636 52.6764 89.9231 53.8868 89.9231 55.9724V55.9887C89.9231 58.0661 90.8636 59.2848 92.5321 59.2848ZM98.8052 60.3889V51.5722H100.228V52.8972H100.359C100.801 51.9648 101.627 51.4168 102.927 51.4168C104.906 51.4168 106.011 52.5864 106.011 54.6801V60.3889H104.588V55.0237C104.588 53.437 103.933 52.6764 102.526 52.6764C101.12 52.6764 100.228 53.6251 100.228 55.1709V60.3889H98.8052ZM111.613 60.5443C109.65 60.5443 108.301 59.5956 108.137 58.1397H109.593C109.83 58.8758 110.533 59.3584 111.662 59.3584C112.848 59.3584 113.69 58.794 113.69 57.9925V57.9762C113.69 57.3791 113.241 56.962 112.153 56.7003L110.787 56.3731C109.135 55.9806 108.391 55.2608 108.391 53.9931V53.985C108.391 52.521 109.797 51.4168 111.67 51.4168C113.519 51.4168 114.803 52.341 114.999 53.7805H113.6C113.412 53.0853 112.725 52.6028 111.662 52.6028C110.615 52.6028 109.846 53.1425 109.846 53.9195V53.9359C109.846 54.5329 110.288 54.9091 111.327 55.1627L112.684 55.4898C114.345 55.8906 115.146 56.6103 115.146 57.8698V57.8862C115.146 59.4565 113.617 60.5443 111.613 60.5443Z" fill="#232329"/>
<g clip-path="url(#clip1_283_2637)">
<rect x="30.6948" y="76.695" width="18.61" height="18.61" rx="2.90781" fill="#F21856"/>
<path fill-rule="evenodd" clip-rule="evenodd" d="M39.014 88.6534H39.9744L39.734 87.9334L39.014 88.6534ZM40.535 87.1323V88.6534H42.7421C43.7464 88.6534 44.5525 88.3559 45.1602 87.761C45.7743 87.1661 46.0814 86.3504 46.0814 85.3141C46.0814 84.4249 45.7711 83.6828 45.1506 83.0879C45.0523 82.9926 44.9497 82.9049 44.8426 82.8248L43.9071 83.7603C43.974 83.812 44.0367 83.8693 44.0951 83.9323C44.4213 84.2777 44.5845 84.7383 44.5845 85.3141C44.5845 85.9922 44.4213 86.5167 44.0951 86.8878C43.7752 87.2588 43.3178 87.4443 42.7229 87.4443H42.0512V85.6162L40.535 87.1323ZM42.0512 84.7937L40.535 86.3099V84.665L43.0075 82.1925C43.4956 82.2192 43.9365 82.3266 44.3302 82.5147L43.3575 83.4875C43.1639 83.4322 42.9491 83.4045 42.7133 83.4045H42.0512V84.7937ZM42.1917 82.1859H40.535V83.8425L42.1917 82.1859ZM38.9106 85.4669L37.8153 82.1859H35.9537L33.7947 88.6534H35.3396L35.733 87.3292H37.0484L38.9106 85.4669ZM37.8708 87.3292H37.9976L38.3454 88.4996L39.5282 87.3168L39.1165 86.0835L37.8708 87.3292ZM37.5754 85.909L37.6426 86.1393H36.0881L36.1552 85.909C36.5775 84.4952 36.8142 83.6124 36.8653 83.2606L36.9037 83.4525C36.9293 83.5804 36.9997 83.8651 37.1148 84.3065C37.2364 84.7479 37.3899 85.2821 37.5754 85.909Z" fill="white"/>
<path d="M45.3833 79.817L46.2058 80.6395L34.6525 92.1927L33.8301 91.3702L45.3833 79.817Z" fill="white"/>
<path d="M42.9633 78.8032C42.9757 78.8032 42.9881 78.8055 42.9996 78.8101C43.0108 78.8148 43.0209 78.8215 43.0294 78.8301L47.1985 83.0006C47.2159 83.0179 47.2257 83.0415 47.2258 83.066V88.9642C47.2258 88.9766 47.2235 88.9889 47.2189 89.0005C47.2143 89.0118 47.2075 89.0221 47.1989 89.0307L43.0291 93.1987C43.0205 93.2074 43.0102 93.2142 42.9989 93.2187C42.9874 93.2235 42.975 93.226 42.9626 93.2259H37.0655C37.053 93.226 37.0407 93.2235 37.0292 93.2187C37.0179 93.2142 37.0077 93.2074 36.9994 93.1987L32.831 89.0296C32.8221 89.0209 32.8151 89.0106 32.8102 88.9992C32.8054 88.9877 32.803 88.9755 32.803 88.9631V83.0671C32.803 83.0547 32.8055 83.0425 32.8103 83.031C32.8151 83.0196 32.8221 83.0093 32.831 83.0006L36.9997 78.8304C37.0084 78.8217 37.0186 78.8148 37.0299 78.8101C37.0415 78.8055 37.0538 78.8032 37.0662 78.8032H42.9633ZM42.9633 77.64H37.0655C36.7324 77.6401 36.413 77.7724 36.1775 78.0079L32.0085 82.1784C31.8917 82.2949 31.7991 82.4332 31.7358 82.5855C31.6726 82.7378 31.64 82.9011 31.6399 83.066V88.9631C31.6398 89.1283 31.6723 89.292 31.7356 89.4447C31.7988 89.5973 31.8915 89.7361 32.0085 89.8529L36.1775 94.0219C36.413 94.2574 36.7324 94.3898 37.0655 94.3898H42.9633C43.1285 94.3899 43.2921 94.3574 43.4447 94.2941C43.5973 94.2309 43.736 94.1381 43.8527 94.0212L48.0211 89.8529C48.1379 89.7362 48.2305 89.5976 48.2937 89.445C48.3568 89.2924 48.3892 89.1289 48.3889 88.9638V83.066C48.3889 82.9012 48.3564 82.7379 48.2933 82.5856C48.2302 82.4333 48.1377 82.295 48.0211 82.1784L43.8527 78.0079C43.7359 77.8911 43.5973 77.7985 43.4446 77.7354C43.292 77.6723 43.1284 77.6399 42.9633 77.64Z" fill="white"/>
</g>
<path d="M57.8372 89.0278V79.8485H61.3486C63.0343 79.8485 64.0648 80.7327 64.0648 82.1322V82.1449C64.0648 83.0928 63.3651 83.9579 62.4809 84.1169V84.2187C63.7341 84.3777 64.5292 85.2365 64.5292 86.4451V86.4578C64.5292 88.0672 63.3715 89.0278 61.4186 89.0278H57.8372ZM61.1069 80.86H58.9822V83.8052H60.8143C62.201 83.8052 62.9071 83.309 62.9071 82.3421V82.3294C62.9071 81.4007 62.2455 80.86 61.1069 80.86ZM61.1387 84.7912H58.9822V88.0163H61.2468C62.6272 88.0163 63.3524 87.4565 63.3524 86.4006V86.3879C63.3524 85.3319 62.6018 84.7912 61.1387 84.7912ZM66.3231 89.0278V79.4478H67.4299V89.0278H66.3231ZM72.3726 89.1486C70.4197 89.1486 69.2111 87.8001 69.2111 85.6054V85.5927C69.2111 83.3917 70.4197 82.0495 72.3726 82.0495C74.3255 82.0495 75.5341 83.3917 75.5341 85.5927V85.6054C75.5341 87.8001 74.3255 89.1486 72.3726 89.1486ZM72.3726 88.169C73.6703 88.169 74.4018 87.2212 74.4018 85.6054V85.5927C74.4018 83.9706 73.6703 83.0291 72.3726 83.0291C71.0749 83.0291 70.3434 83.9706 70.3434 85.5927V85.6054C70.3434 87.2212 71.0749 88.169 72.3726 88.169ZM76.3865 89.0278L78.7338 85.5991L76.3611 82.1704H77.6651L79.2936 84.7212H79.3954L81.0048 82.1704H82.2452L79.917 85.5545L82.277 89.0278H80.9793L79.3572 86.4388H79.2554L77.627 89.0278H76.3865ZM86.9143 85.8472V84.8166H93.4855V85.8472H86.9143ZM98.1101 89.0278L101.494 79.8485H102.627L106.011 89.0278H104.808L103.886 86.4006H100.235L99.3124 89.0278H98.1101ZM102.01 81.3307L100.572 85.4273H103.549L102.111 81.3307H102.01ZM109.63 89.1486C107.894 89.1486 106.755 87.7428 106.755 85.6054V85.5927C106.755 83.4426 107.887 82.0495 109.63 82.0495C110.572 82.0495 111.392 82.5202 111.768 83.2518H111.869V79.4478H112.976V89.0278H111.869V87.9336H111.768C111.348 88.697 110.584 89.1486 109.63 89.1486ZM109.885 88.169C111.132 88.169 111.895 87.1894 111.895 85.6054V85.5927C111.895 84.0088 111.132 83.0291 109.885 83.0291C108.632 83.0291 107.887 83.996 107.887 85.5927V85.6054C107.887 87.2021 108.632 88.169 109.885 88.169ZM118.905 89.0278V79.8485H122.416C124.102 79.8485 125.133 80.7327 125.133 82.1322V82.1449C125.133 83.0928 124.433 83.9579 123.549 84.1169V84.2187C124.802 84.3777 125.597 85.2365 125.597 86.4451V86.4578C125.597 88.0672 124.439 89.0278 122.486 89.0278H118.905ZM122.175 80.86H120.05V83.8052H121.882C123.269 83.8052 123.975 83.309 123.975 82.3421V82.3294C123.975 81.4007 123.313 80.86 122.175 80.86ZM122.206 84.7912H120.05V88.0163H122.315C123.695 88.0163 124.42 87.4565 124.42 86.4006V86.3879C124.42 85.3319 123.669 84.7912 122.206 84.7912ZM127.391 89.0278V79.4478H128.498V89.0278H127.391ZM133.44 89.1486C131.487 89.1486 130.279 87.8001 130.279 85.6054V85.5927C130.279 83.3917 131.487 82.0495 133.44 82.0495C135.393 82.0495 136.602 83.3917 136.602 85.5927V85.6054C136.602 87.8001 135.393 89.1486 133.44 89.1486ZM133.44 88.169C134.738 88.169 135.47 87.2212 135.47 85.6054V85.5927C135.47 83.9706 134.738 83.0291 133.44 83.0291C132.143 83.0291 131.411 83.9706 131.411 85.5927V85.6054C131.411 87.2212 132.143 88.169 133.44 88.169ZM141.125 89.1486C139.204 89.1486 137.976 87.7555 137.976 85.58V85.5673C137.976 83.4363 139.197 82.0495 141.118 82.0495C142.785 82.0495 143.784 83.0101 143.987 84.2314L143.994 84.2696H142.893L142.887 84.2505C142.715 83.5762 142.104 83.0291 141.118 83.0291C139.884 83.0291 139.108 84.0215 139.108 85.5673V85.58C139.108 87.1576 139.897 88.169 141.118 88.169C142.041 88.169 142.626 87.7619 142.88 86.9985L142.893 86.9604L143.987 86.954L143.974 87.024C143.695 88.2644 142.772 89.1486 141.125 89.1486ZM145.673 89.0278V79.4478H146.78V85.1665H146.882L149.846 82.1704H151.188L148.198 85.052L151.385 89.0278H149.992L147.422 85.8026L146.78 86.426V89.0278H145.673ZM153.586 89.0914C153.135 89.0914 152.759 88.7161 152.759 88.2644C152.759 87.8064 153.135 87.4375 153.586 87.4375C154.044 87.4375 154.413 87.8064 154.413 88.2644C154.413 88.7161 154.044 89.0914 153.586 89.0914ZM157.454 89.0914C157.002 89.0914 156.627 88.7161 156.627 88.2644C156.627 87.8064 157.002 87.4375 157.454 87.4375C157.912 87.4375 158.281 87.8064 158.281 88.2644C158.281 88.7161 157.912 89.0914 157.454 89.0914ZM161.322 89.0914C160.87 89.0914 160.495 88.7161 160.495 88.2644C160.495 87.8064 160.87 87.4375 161.322 87.4375C161.78 87.4375 162.148 87.8064 162.148 88.2644C162.148 88.7161 161.78 89.0914 161.322 89.0914Z" fill="#DFDFE4"/>
<circle cx="39.9166" cy="115.389" r="9.30556" fill="#68687B"/>
<circle cx="213" cy="115.389" r="9.30556" fill="#68687B"/>
<circle cx="252.083" cy="115.389" r="9.30556" fill="#68687B"/>
<rect x="56.6667" y="106.083" width="121.903" height="18.6111" rx="9.30556" fill="#68687B"/>
<circle cx="213" cy="85.6111" r="25.125" fill="#232329" stroke="#FF3B30" stroke-width="1.86111"/>
<path fill-rule="evenodd" clip-rule="evenodd" d="M215.482 83.75V80.6481H216.102C216.443 80.6481 216.722 80.369 216.722 80.0278C216.722 79.6866 216.443 79.4074 216.102 79.4074H209.898C209.557 79.4074 209.278 79.6866 209.278 80.0278C209.278 80.369 209.557 80.6481 209.898 80.6481H210.519V83.75C210.519 84.7798 209.687 85.6111 208.657 85.6111V86.8518H212.361V91.1944L212.981 91.8148L213.602 91.1944V86.8518H217.343V85.6111C216.313 85.6111 215.482 84.7798 215.482 83.75Z" fill="#007AFF"/>
<path d="M252.084 91.8148C251.657 91.8148 251.292 91.6628 250.988 91.3588C250.684 91.0548 250.532 90.6899 250.533 90.2639C250.533 89.8374 250.685 89.4721 250.989 89.1681C251.293 88.8642 251.658 88.7124 252.084 88.713C252.51 88.713 252.875 88.8649 253.179 89.1689C253.483 89.4729 253.635 89.8379 253.635 90.2639C253.635 90.6904 253.483 91.0556 253.179 91.3596C252.875 91.6636 252.51 91.8153 252.084 91.8148ZM252.084 87.162C251.657 87.162 251.292 87.01 250.988 86.7061C250.684 86.4021 250.532 86.0371 250.533 85.6111C250.533 85.1846 250.685 84.8194 250.989 84.5154C251.293 84.2114 251.658 84.0597 252.084 84.0602C252.51 84.0602 252.875 84.2122 253.179 84.5161C253.483 84.8201 253.635 85.1851 253.635 85.6111C253.635 86.0376 253.483 86.4028 253.179 86.7068C252.875 87.0108 252.51 87.1625 252.084 87.162ZM252.084 82.5092C251.657 82.5092 251.292 82.3573 250.988 82.0533C250.684 81.7493 250.532 81.3843 250.533 80.9583C250.533 80.5318 250.685 80.1666 250.989 79.8626C251.293 79.5586 251.658 79.4069 252.084 79.4074C252.51 79.4074 252.875 79.5594 253.179 79.8634C253.483 80.1673 253.635 80.5323 253.635 80.9583C253.635 81.3848 253.483 81.7501 253.179 82.0541C252.875 82.358 252.51 82.5098 252.084 82.5092Z" fill="white"/>
<circle cx="39.9166" cy="145.167" r="9.30556" fill="#68687B"/>
<circle cx="213" cy="145.167" r="9.30556" fill="#68687B"/>
<circle cx="252.083" cy="145.167" r="9.30556" fill="#68687B"/>
<rect x="56.6667" y="135.861" width="121.903" height="18.6111" rx="9.30556" fill="#68687B"/>
<defs>
<filter id="filter0_d_334_7281" x="0.833279" y="18.6111" width="290.333" height="165.639" filterUnits="userSpaceOnUse" color-interpolation-filters="sRGB">
<feFlood flood-opacity="0" result="BackgroundImageFix"/>
<feColorMatrix in="SourceAlpha" type="matrix" values="0 0 0 0 0 0 0 0 0 0 0 0 0 0 0 0 0 0 127 0" result="hardAlpha"/>
<feOffset/>
<feGaussianBlur stdDeviation="7.44444"/>
<feComposite in2="hardAlpha" operator="out"/>
<feColorMatrix type="matrix" values="0 0 0 0 0 0 0 0 0 0 0 0 0 0 0 0 0 0 0.2 0"/>
<feBlend mode="normal" in2="BackgroundImageFix" result="effect1_dropShadow_334_7281"/>
<feBlend mode="normal" in="SourceGraphic" in2="effect1_dropShadow_334_7281" result="shape"/>
</filter>
<radialGradient id="paint0_radial_334_7281" cx="0" cy="0" r="1" gradientUnits="userSpaceOnUse" gradientTransform="translate(227.638 29.7383) rotate(-90) scale(18.4439 17.1543)">
<stop stop-color="#A7002E"/>
<stop offset="0.1" stop-color="#F21856"/>
<stop offset="0.5" stop-color="#F21856"/>
<stop offset="1" stop-color="#BD0996"/>
</radialGradient>
<radialGradient id="paint1_radial_334_7281" cx="0" cy="0" r="1" gradientUnits="userSpaceOnUse" gradientTransform="translate(219.578 11.0356) rotate(78.681) scale(8.24452 33.9842)">
<stop stop-color="#F20045"/>
<stop offset="0.128" stop-color="#F20045"/>
<stop offset="1" stop-color="#EB03FD" stop-opacity="0"/>
</radialGradient>
<radialGradient id="paint2_radial_334_7281" cx="0" cy="0" r="1" gradientUnits="userSpaceOnUse" gradientTransform="translate(35.6381 96.7383) rotate(-90) scale(18.4439 17.1543)">
<stop stop-color="#A7002E"/>
<stop offset="0.1" stop-color="#F21856"/>
<stop offset="0.5" stop-color="#F21856"/>
<stop offset="1" stop-color="#BD0996"/>
</radialGradient>
<radialGradient id="paint3_radial_334_7281" cx="0" cy="0" r="1" gradientUnits="userSpaceOnUse" gradientTransform="translate(27.5776 78.0356) rotate(78.681) scale(8.24452 33.9842)">
<stop stop-color="#F20045"/>
<stop offset="0.128" stop-color="#F20045"/>
<stop offset="1" stop-color="#EB03FD" stop-opacity="0"/>
</radialGradient>
<clipPath id="clip0_334_7281">
<rect width="18.61" height="18.61" fill="white" transform="translate(222.695 9.69501)"/>
</clipPath>
<clipPath id="clip1_334_7281">
<rect width="18.61" height="18.61" fill="white" transform="translate(30.6948 76.695)"/>
</clipPath>
</defs>
</svg>
