<svg width="32" height="32" viewBox="0 0 32 32" fill="none" xmlns="http://www.w3.org/2000/svg">
<g id="material-symbols:language">
<path id="Vector" d="M15.9994 29.3333C14.1771 29.3333 12.4549 28.9831 10.8327 28.2826C9.21046 27.5822 7.79357 26.6266 6.58202 25.416C5.37135 24.2053 4.4158 22.7888 3.71535 21.1666C3.01491 19.5444 2.66513 17.8222 2.66602 16C2.66602 14.1555 3.01624 12.4275 3.71668 10.816C4.41713 9.2044 5.37268 7.79374 6.58335 6.58396C7.79402 5.3724 9.21002 4.41685 10.8314 3.71729C12.4527 3.01774 14.1754 2.66751 15.9994 2.66663C17.8438 2.66663 19.5718 3.01685 21.1833 3.71729C22.7949 4.41774 24.2056 5.37329 25.4154 6.58396C26.6269 7.79463 27.5825 9.20574 28.282 10.8173C28.9816 12.4288 29.3318 14.1564 29.3327 16C29.3327 17.8222 28.9825 19.5444 28.282 21.1666C27.5816 22.7888 26.626 24.2057 25.4154 25.4173C24.2047 26.628 22.7936 27.5835 21.182 28.284C19.5705 28.9844 17.8429 29.3342 15.9994 29.3333ZM15.9994 26.6C16.5771 25.8 17.0771 24.9666 17.4994 24.1C17.9216 23.2333 18.266 22.3111 18.5327 21.3333H13.466C13.7327 22.3111 14.0771 23.2333 14.4994 24.1C14.9216 24.9666 15.4216 25.8 15.9994 26.6ZM12.5327 26.0666C12.1327 25.3333 11.7825 24.572 11.482 23.7826C11.1816 22.9933 10.9318 22.1768 10.7327 21.3333H6.79935C7.4438 22.4444 8.24957 23.4111 9.21668 24.2333C10.1838 25.0555 11.2891 25.6666 12.5327 26.0666ZM19.466 26.0666C20.7105 25.6666 21.8162 25.0555 22.7833 24.2333C23.7505 23.4111 24.5558 22.4444 25.1994 21.3333H21.266C21.066 22.1777 20.8162 22.9946 20.5167 23.784C20.2171 24.5733 19.8669 25.3342 19.466 26.0666ZM5.66602 18.6666H10.1994C10.1327 18.2222 10.0825 17.7831 10.0487 17.3493C10.0149 16.9155 9.99846 16.4657 9.99935 16C9.99935 15.5333 10.0162 15.0835 10.05 14.6506C10.0838 14.2177 10.1336 13.7786 10.1994 13.3333H5.66602C5.55491 13.7777 5.47135 14.2168 5.41535 14.6506C5.35935 15.0844 5.33179 15.5342 5.33268 16C5.33268 16.4666 5.36068 16.9164 5.41668 17.3493C5.47268 17.7822 5.5558 18.2213 5.66602 18.6666ZM12.866 18.6666H19.1327C19.1994 18.2222 19.2496 17.7831 19.2834 17.3493C19.3171 16.9155 19.3336 16.4657 19.3327 16C19.3327 15.5333 19.3158 15.0835 19.282 14.6506C19.2482 14.2177 19.1985 13.7786 19.1327 13.3333H12.866C12.7994 13.7777 12.7491 14.2168 12.7154 14.6506C12.6816 15.0844 12.6651 15.5342 12.666 16C12.666 16.4666 12.6829 16.9164 12.7167 17.3493C12.7505 17.7822 12.8002 18.2213 12.866 18.6666ZM21.7994 18.6666H26.3327C26.4438 18.2222 26.5274 17.7831 26.5834 17.3493C26.6394 16.9155 26.6669 16.4657 26.666 16C26.666 15.5333 26.638 15.0835 26.582 14.6506C26.526 14.2177 26.4429 13.7786 26.3327 13.3333H21.7994C21.866 13.7777 21.9162 14.2168 21.95 14.6506C21.9838 15.0844 22.0002 15.5342 21.9994 16C21.9994 16.4666 21.9825 16.9164 21.9487 17.3493C21.9149 17.7822 21.8651 18.2213 21.7994 18.6666ZM21.266 10.6666H25.1994C24.5549 9.55552 23.7496 8.58885 22.7833 7.76663C21.8171 6.9444 20.7114 6.33329 19.466 5.93329C19.866 6.66663 20.2162 7.42796 20.5167 8.21729C20.8171 9.00663 21.0669 9.82307 21.266 10.6666ZM13.466 10.6666H18.5327C18.266 9.68885 17.9216 8.76663 17.4994 7.89996C17.0771 7.03329 16.5771 6.19996 15.9994 5.39996C15.4216 6.19996 14.9216 7.03329 14.4994 7.89996C14.0771 8.76663 13.7327 9.68885 13.466 10.6666ZM6.79935 10.6666H10.7327C10.9327 9.82218 11.1829 9.00529 11.4834 8.21596C11.7838 7.42663 12.1336 6.66574 12.5327 5.93329C11.2882 6.33329 10.1825 6.9444 9.21535 7.76663C8.24824 8.58885 7.44291 9.55552 6.79935 10.6666Z" fill="#09B37D"/>
</g>
</svg>
